# xmcd
#
# Track frame offsets: 
#        150
#        16475
#        33127
#        53967
#        66555
#        80455
#        94810
#        108790
#        120817
#        136580
#        146322
#        159255
#        174922
#        189190
#        204912
#        214367
#        226262
#        241295
#        255510
#        268872
#        284922
#
# Disc length: 4567 seconds
#
# Revision: 3
# Processed by: cddbd v1.5.2PL0 Copyright (c) Steve Scherf et al.
# Submitted via: ExactAudioCopy v0.95b4
#
DISCID=1911d515
DTITLE=Various Artist - Energie - Musiques Stimulantes and Positives
DYEAR=1999
DGENRE=New Age
TTITLE0=Cyril Morin - Illusion
TTITLE1=David Tao - Magic Hymn
TTITLE2=Lyonel Bauchet - Earth Tales
TTITLE3=Christophe Jacquelin - Basic Element 
TTITLE4=M. Hawkins - Angel
TTITLE5=John Crayson - Apnea
TTITLE6=M. Russel Et P. MacFarlane - Grand Canyon
TTITLE7=Jean-Paul Merkel - Cosmic Harmony
TTITLE8=D. Rogers Et P. Shaw - Silhouette
TTITLE9=M. Hawkins - River
TTITLE10=Christophe Jacquelin - Freedom Flight
TTITLE11=David Tao - Atmospheric Dreams
TTITLE12=Erich Fauret - Love Land
TTITLE13=Christian Poulet - Magic Planet
TTITLE14=Didier Malherbe Et Loy Ehrlich - Hadouk
TTITLE15=Christophe Jacquelin - By Dawn
TTITLE16=Jean-Yves Rigo - Crystal Vibe
TTITLE17=David Tao - Total Vision
TTITLE18=Christophe Jacquelin - Dreaming
TTITLE19=Lyonel Bauchet - Oxygene 
TTITLE20=Fara - Emergence
EXTD=YEAR: 1999
EXTT0=
EXTT1=
EXTT2=
EXTT3=
EXTT4=
EXTT5=
EXTT6=
EXTT7=
EXTT8=
EXTT9=
EXTT10=
EXTT11=
EXTT12=
EXTT13=
EXTT14=
EXTT15=
EXTT16=
EXTT17=
EXTT18=
EXTT19=
EXTT20=
PLAYORDER=
